<svg width="1600" height="800" viewBox="0 0 1600 800" fill="none" xmlns="http://www.w3.org/2000/svg">
<g clip-path="url(#clip0_94_3)">
<rect width="1600" height="800" fill="white"/>
<g filter="url(#filter0_d_94_3)">
<path d="M0 12H24V36H0V12Z" fill="#E0E0E0"/>
<path d="M0 52H24V76H0V52Z" fill="#E0E0E0"/>
<path d="M0 92H24V116H0V92Z" fill="#E0E0E0"/>
</g>
<g filter="url(#filter1_d_94_3)">
<path d="M128 0H1600V128H140C133.373 128 128 122.627 128 116V0Z" fill="#F8F8F8"/>
</g>
<path d="M140 20C140 15.5817 143.582 12 148 12H176C180.418 12 184 15.5817 184 20V48C184 52.4183 180.418 56 176 56H148C143.582 56 140 52.4183 140 48V20Z" fill="#374649"/>
<g clip-path="url(#clip1_94_3)">
<path d="M171.1 38.2C170.131 38.2 169.184 38.4873 168.378 39.0257C167.572 39.5642 166.944 40.3294 166.573 41.2248C166.202 42.1202 166.105 43.1054 166.294 44.0559C166.483 45.0064 166.95 45.8795 167.635 46.5648C168.32 47.2501 169.194 47.7167 170.144 47.9058C171.095 48.0949 172.08 47.9978 172.975 47.627C173.871 47.2561 174.636 46.628 175.174 45.8222C175.713 45.0164 176 44.0691 176 43.1C176 41.8004 175.484 40.5541 174.565 39.6351C173.646 38.7162 172.4 38.2 171.1 38.2ZM173.931 44.7429C174.009 44.8209 174.071 44.9136 174.114 45.0157C174.156 45.1178 174.178 45.2273 174.178 45.3379C174.178 45.4484 174.156 45.5579 174.114 45.66C174.071 45.7621 174.009 45.8548 173.931 45.9329C173.853 46.0112 173.76 46.0733 173.658 46.1157C173.556 46.1581 173.446 46.1799 173.336 46.1799C173.225 46.1799 173.116 46.1581 173.014 46.1157C172.912 46.0733 172.819 46.0112 172.741 45.9329L171.1 44.29L169.457 45.9329C169.379 46.011 169.286 46.073 169.184 46.1153C169.082 46.1575 168.973 46.1793 168.862 46.1793C168.752 46.1793 168.642 46.1575 168.54 46.1153C168.438 46.073 168.345 46.011 168.267 45.9329C168.189 45.8547 168.127 45.762 168.085 45.6599C168.042 45.5578 168.021 45.4484 168.021 45.3379C168.021 45.2274 168.042 45.1179 168.085 45.0158C168.127 44.9138 168.189 44.821 168.267 44.7429L169.91 43.1L168.267 41.4571C168.109 41.2992 168.021 41.0852 168.021 40.8621C168.021 40.6389 168.109 40.4249 168.267 40.2671C168.425 40.1092 168.639 40.0206 168.862 40.0206C169.085 40.0206 169.299 40.1092 169.457 40.2671L171.1 41.91L172.743 40.2671C172.821 40.1889 172.914 40.1269 173.016 40.0846C173.118 40.0424 173.227 40.0206 173.338 40.0206C173.448 40.0206 173.558 40.0424 173.66 40.0846C173.762 40.1269 173.855 40.1889 173.933 40.2671C174.011 40.3452 174.073 40.4379 174.115 40.54C174.158 40.6421 174.179 40.7515 174.179 40.8621C174.179 40.9726 174.158 41.082 174.115 41.1841C174.073 41.2862 174.011 41.3789 173.933 41.4571L172.29 43.1L173.931 44.7429Z" fill="white"/>
<path d="M175.729 21.5463C176.307 20.9758 175.898 20 175.08 20H148.92C148.102 20 147.693 20.9758 148.271 21.5463L157.638 30.7933C157.809 30.9605 157.944 31.1598 158.036 31.3798C158.128 31.5997 158.176 31.8358 158.176 32.0743V44.99C158.176 45.7971 159.164 46.2017 159.743 45.6305L165.29 40.16C165.46 39.9928 165.595 39.7934 165.688 39.5735C165.78 39.3536 165.827 39.1175 165.828 38.879V32.0743C165.828 31.8358 165.875 31.5997 165.968 31.3798C166.06 31.1598 166.195 30.9605 166.365 30.7933L175.729 21.5463Z" fill="white"/>
</g>
<path d="M140 78C140 73.5817 143.582 70 148 70H176C180.418 70 184 73.5817 184 78V106C184 110.418 180.418 114 176 114H148C143.582 114 140 110.418 140 106V78Z" fill="#374649"/>
<g clip-path="url(#clip2_94_3)">
<path d="M157.571 89.8379C157.22 87.9501 156.933 85.9349 156.71 83.7925C156.602 84.8374 156.464 85.8954 156.296 86.9665C156.128 88.0376 155.929 89.1749 155.699 90.3784L155.262 92.6124H158.099L157.571 89.8379Z" fill="white"/>
<path d="M153.583 100.374H173.265C173.46 100.374 173.647 100.298 173.785 100.163C173.922 100.028 174 99.8448 174 99.6537V78.7192C174 78.528 173.922 78.3448 173.785 78.2096C173.647 78.0745 173.46 77.9985 173.265 77.9985H153.468C153.012 77.9985 152.561 78.0866 152.141 78.2577C151.72 78.4288 151.338 78.6795 151.016 78.9957C150.694 79.3118 150.438 79.6871 150.264 80.1001C150.09 80.5131 150 80.9558 150 81.4028V102.613C150 103.512 150.364 104.373 151.011 105.008C151.658 105.643 152.535 106 153.45 106H173.265C173.46 106 173.647 105.924 173.785 105.789C173.922 105.654 174 105.471 174 105.28V102.447C174 102.256 173.922 102.072 173.785 101.937C173.647 101.802 173.46 101.726 173.265 101.726H173.229C173.034 101.726 172.847 101.802 172.71 101.937C172.572 102.072 172.495 102.256 172.495 102.447V104.493H153.583C153.027 104.493 152.493 104.276 152.1 103.89C151.706 103.504 151.485 102.98 151.485 102.434C151.485 102.163 151.539 101.895 151.645 101.646C151.75 101.396 151.905 101.169 152.1 100.977C152.294 100.786 152.526 100.635 152.78 100.531C153.035 100.428 153.308 100.374 153.583 100.374ZM164.948 80.4094H172.76L167.43 95.7676H172.473V97.8215H164.317L169.693 82.3941H164.948V80.4094ZM161.013 90.9639H165.193V92.7233H161.013V90.9639ZM155.814 80.4094H157.674L161.477 97.82H159.11L158.444 94.4258H154.929L154.251 97.82H151.954L155.814 80.4094Z" fill="white"/>
</g>
<g filter="url(#filter2_d_94_3)">
<path d="M16 164C16 157.373 21.3726 152 28 152H1572C1578.63 152 1584 157.373 1584 164V772C1584 778.627 1578.63 784 1572 784H28C21.3726 784 16 778.627 16 772V164Z" fill="#F8F8F8"/>
</g>
<rect x="483" y="186" width="858" height="32" fill="#827B40"/>
<rect x="240" y="164" width="254" height="38" rx="8" fill="#BE4A47" fill-opacity="0.8"/>
<g filter="url(#filter3_d_94_3)">
<rect x="240" y="180" width="254" height="52" rx="8" fill="#BE4A47"/>
</g>
<rect x="510" y="164" width="254" height="38" rx="8" fill="#BA7029" fill-opacity="0.8"/>
<g filter="url(#filter4_d_94_3)">
<rect x="510" y="180" width="254" height="52" rx="8" fill="#BA7029"/>
</g>
<rect x="780" y="164" width="254" height="38" rx="8" fill="#B6960B" fill-opacity="0.8"/>
<g filter="url(#filter5_d_94_3)">
<rect x="780" y="180" width="254" height="52" rx="8" fill="#B6960B"/>
</g>
<rect x="1050" y="164" width="254" height="38" rx="8" fill="#5B9045" fill-opacity="0.8"/>
<g filter="url(#filter6_d_94_3)">
<rect x="1050" y="180" width="254" height="52" rx="8" fill="#5B9045"/>
</g>
<rect x="1320" y="164" width="254" height="38" rx="8" fill="#018A80" fill-opacity="0.8"/>
<g filter="url(#filter7_d_94_3)">
<rect x="1320" y="180" width="254" height="52" rx="8" fill="#018A80"/>
</g>
<rect x="28" y="248" width="196" height="80" rx="8" fill="#827B40"/>
<rect x="28" y="344" width="196" height="80" rx="8" fill="#D9D9D9"/>
<g filter="url(#filter8_d_94_3)">
<path d="M28 168C28 165.791 29.7909 164 32 164H218C220.209 164 222 165.791 222 168V228C222 230.209 220.209 232 218 232H32C29.7909 232 28 230.209 28 228V168Z" fill="#E0E0E0"/>
</g>
<path d="M53.8989 175.071C47.19 175.77 41.2811 179.158 38.2363 184.049C37.8492 184.685 37.1009 186.188 37.1009 186.336C37.1009 186.442 38.4943 186.887 38.804 186.887C38.8556 186.887 38.9588 186.654 39.0878 186.378C39.4232 185.531 40.378 183.986 41.1779 182.991C42.1584 181.784 44.4291 179.92 45.874 179.095C47.9641 177.93 50.338 177.125 52.7893 176.765C54.4407 176.511 57.6919 176.511 59.3433 176.765C60.9947 177.019 62.4397 177.422 64.0395 178.057L65.4071 178.608L63.5235 179.116C62.4913 179.391 61.614 179.645 61.5882 179.687C61.5366 179.73 62.0011 181 62.1043 181.106C62.1301 181.127 63.4719 180.788 65.0975 180.344C68.1164 179.539 68.4777 179.391 68.4777 178.925C68.4777 178.523 68.3229 178.375 67.2907 177.803C64.0911 176.067 60.4013 175.093 56.6082 175.008C55.6019 174.987 54.3891 175.008 53.8989 175.071Z" fill="black"/>
<path d="M71.2902 181.995C70.929 182.207 70.6452 182.397 70.5936 182.419C70.5678 182.44 70.8516 182.842 71.2128 183.308C72.4514 184.832 73.3029 186.569 73.7932 188.496C74.1544 189.851 74.1802 192.646 73.8448 194.064C73.3803 196.097 72.3998 198.066 71.0064 199.781C70.1033 200.904 67.781 202.83 66.465 203.571C64.4524 204.694 61.743 205.604 59.4466 205.964L58.5176 206.091L59.9884 204.884L61.4592 203.677L60.7625 203.106L60.0916 202.555L57.5887 204.609C55.3696 206.451 55.0858 206.705 55.0858 206.98C55.0858 207.489 55.5245 207.785 56.2986 207.785C58.8789 207.785 62.1817 207.129 64.6072 206.134C65.2523 205.879 65.7942 205.689 65.7942 205.71C65.7942 205.752 65.3555 206.917 64.8652 208.314L63.9363 210.855H56.0405H48.1705L46.803 207.15C45.4612 203.508 45.4354 203.423 44.9967 203.148C41.9003 201.094 39.9393 198.828 38.8298 196.033C38.4169 195.017 37.9782 193.281 38.0557 193.006C38.0815 192.879 38.4169 193.006 39.6555 193.62L41.2295 194.403L41.5391 193.937C41.7197 193.683 41.9519 193.387 42.0294 193.26C42.1842 193.048 42.1326 193.006 39.7071 191.82C38.1847 191.058 37.1009 190.592 36.8945 190.592C36.7139 190.592 36.4301 190.698 36.2752 190.846C35.9656 191.1 35.9656 191.1 36.043 192.243C36.3526 196.775 39.1136 201.242 43.2937 204.037C43.7582 204.334 43.7582 204.376 45.1774 208.23C46.2353 211.131 46.6481 212.168 46.8546 212.295C47.0868 212.465 47.7061 212.465 56.0147 212.465C64.3234 212.465 64.9426 212.465 65.1749 212.295C65.3555 212.168 65.7942 211.131 66.8521 208.23L68.2713 204.313L69.4066 203.444C75.1091 199.104 77.2766 193.006 75.2639 186.929C74.9027 185.87 74.5415 185.086 73.7674 183.858C73.1481 182.863 72.245 181.699 72.0385 181.635C71.9869 181.614 71.6515 181.783 71.2902 181.995Z" fill="black"/>
<path d="M49.3833 183.562V184.346H50.338H51.2927V183.562V182.779H50.338H49.3833V183.562Z" fill="black"/>
<path d="M53.2022 183.562V184.346H54.1569H55.1116V183.562V182.779H54.1569H53.2022V183.562Z" fill="black"/>
<path d="M56.9952 183.562V184.346H57.95H58.9047V183.562V182.779H57.95H56.9952V183.562Z" fill="black"/>
<path d="M60.8141 183.562V184.346H61.7688H62.7236V183.562V182.779H61.7688H60.8141V183.562Z" fill="black"/>
<path d="M45.5902 186.697V187.48H46.5449H47.4996V186.697V185.913H46.5449H45.5902V186.697Z" fill="black"/>
<path d="M49.3833 188.242V190.593H52.2475H55.1116V188.242V185.913H52.2475H49.3833V188.242ZM53.2022 188.242V189.026H52.2475H51.2927V188.242V187.459H52.2475H53.2022V188.242Z" fill="black"/>
<path d="M56.9952 186.697V187.48H57.95H58.9047V186.697V185.913H57.95H56.9952V186.697Z" fill="black"/>
<path d="M60.8141 186.697V187.48H61.7688H62.7236V186.697V185.913H61.7688H60.8141V186.697Z" fill="black"/>
<path d="M64.633 186.697V187.48H65.5877H66.5424V186.697V185.913H65.5877H64.633V186.697Z" fill="black"/>
<path d="M45.5902 189.809V190.593H46.5449H47.4996V189.809V189.026H46.5449H45.5902V189.809Z" fill="black"/>
<path d="M56.9952 189.809V190.593H57.95H58.9047V189.809V189.026H57.95H56.9952V189.809Z" fill="black"/>
<path d="M60.8141 189.809V190.593H61.7688H62.7236V189.809V189.026H61.7688H60.8141V189.809Z" fill="black"/>
<path d="M64.633 189.809V190.593H65.5877H66.5424V189.809V189.026H65.5877H64.633V189.809Z" fill="black"/>
<path d="M45.5902 192.943V193.727H46.5449H47.4996V192.943V192.16H46.5449H45.5902V192.943Z" fill="black"/>
<path d="M49.3833 192.943V193.727H50.338H51.2927V192.943V192.16H50.338H49.3833V192.943Z" fill="black"/>
<path d="M53.2022 192.943V193.727H54.1569H55.1116V192.943V192.16H54.1569H53.2022V192.943Z" fill="black"/>
<path d="M56.9952 194.51V196.86H59.8594H62.7236V194.51V192.16H59.8594H56.9952V194.51ZM60.8141 194.51V195.293H59.8594H58.9047V194.51V193.727H59.8594H60.8141V194.51Z" fill="black"/>
<path d="M64.633 192.943V193.727H65.5877H66.5424V192.943V192.16H65.5877H64.633V192.943Z" fill="black"/>
<path d="M45.5902 196.055V196.838H46.5449H47.4996V196.055V195.271H46.5449H45.5902V196.055Z" fill="black"/>
<path d="M49.3833 196.055V196.838H50.338H51.2927V196.055V195.271H50.338H49.3833V196.055Z" fill="black"/>
<path d="M53.2022 196.055V196.838H54.1569H55.1116V196.055V195.271H54.1569H53.2022V196.055Z" fill="black"/>
<path d="M64.633 196.055V196.838H65.5877H66.5424V196.055V195.271H65.5877H64.633V196.055Z" fill="black"/>
<path d="M49.3833 199.189V199.972H50.338H51.2927V199.189V198.406H50.338H49.3833V199.189Z" fill="black"/>
<path d="M53.2022 199.189V199.972H54.1569H55.1116V199.189V198.406H54.1569H53.2022V199.189Z" fill="black"/>
<path d="M56.9952 199.189V199.972H57.95H58.9047V199.189V198.406H57.95H56.9952V199.189Z" fill="black"/>
<path d="M60.8141 199.189V199.972H61.7688H62.7236V199.189V198.406H61.7688H60.8141V199.189Z" fill="black"/>
<path d="M46.5191 214.815V215.599H56.0405H65.5877V214.815V214.032H56.0405H46.5191V214.815Z" fill="black"/>
<path d="M46.5191 217.949V218.733H47.4738H48.4286V219.601C48.4286 220.575 48.5318 220.892 48.9962 221.316C49.4865 221.739 49.951 221.866 51.1637 221.866H52.2474V222.756C52.2474 223.751 52.4023 224.132 52.9183 224.534C53.4602 224.958 53.7956 225 56.0663 225C58.337 225 58.6725 224.958 59.2143 224.534C59.7304 224.132 59.8852 223.751 59.8852 222.756V221.866H60.9431C62.1301 221.866 62.5171 221.782 63.0332 221.401C63.5493 220.998 63.7041 220.617 63.7041 219.622V218.733H64.6588H65.6135V217.949V217.166H56.0405H46.5191V217.949ZM61.7688 219.516V220.3H56.0405H50.338V219.516V218.733H56.0405H61.743V219.516H61.7688ZM57.95 222.629V223.412H56.0405H54.1311V222.629V221.845H56.0405H57.95V222.629Z" fill="black"/>
<path d="M240 528C240 523.582 243.582 520 248 520H320C324.418 520 328 523.582 328 528V536H240V528Z" fill="#374649"/>
<g filter="url(#filter9_d_94_3)">
<path d="M240 536H888C892.418 536 896 539.582 896 544V764C896 768.418 892.418 772 888 772H248C243.582 772 240 768.418 240 764V536Z" fill="#E9E9E9"/>
</g>
<path d="M912 528C912 523.582 915.582 520 920 520H944C948.418 520 952 523.582 952 528V536H912V528Z" fill="#374649"/>
<g filter="url(#filter10_d_94_3)">
<path d="M912 536H1566C1570.42 536 1574 539.582 1574 544V764C1574 768.418 1570.42 772 1566 772H920C915.582 772 912 768.418 912 764V536Z" fill="#E9E9E9"/>
</g>
<path d="M240 256C240 251.582 243.582 248 248 248H272C276.418 248 280 251.582 280 256V264H240V256Z" fill="#374649"/>
<g filter="url(#filter11_d_94_3)">
<path d="M240 264H1566C1570.42 264 1574 267.582 1574 272V496C1574 500.418 1570.42 504 1566 504H248C243.582 504 240 500.418 240 496V264Z" fill="#E9E9E9"/>
</g>
</g>
<defs>
<filter id="filter0_d_94_3" x="-4" y="8" width="32" height="112" filterUnits="userSpaceOnUse" color-interpolation-filters="sRGB">
<feFlood flood-opacity="0" result="BackgroundImageFix"/>
<feColorMatrix in="SourceAlpha" type="matrix" values="0 0 0 0 0 0 0 0 0 0 0 0 0 0 0 0 0 0 127 0" result="hardAlpha"/>
<feOffset/>
<feGaussianBlur stdDeviation="2"/>
<feComposite in2="hardAlpha" operator="out"/>
<feColorMatrix type="matrix" values="0 0 0 0 0.686275 0 0 0 0 0.709804 0 0 0 0 0.713726 0 0 0 1 0"/>
<feBlend mode="normal" in2="BackgroundImageFix" result="effect1_dropShadow_94_3"/>
<feBlend mode="normal" in="SourceGraphic" in2="effect1_dropShadow_94_3" result="shape"/>
</filter>
<filter id="filter1_d_94_3" x="120" y="-8" width="1488" height="144" filterUnits="userSpaceOnUse" color-interpolation-filters="sRGB">
<feFlood flood-opacity="0" result="BackgroundImageFix"/>
<feColorMatrix in="SourceAlpha" type="matrix" values="0 0 0 0 0 0 0 0 0 0 0 0 0 0 0 0 0 0 127 0" result="hardAlpha"/>
<feOffset/>
<feGaussianBlur stdDeviation="4"/>
<feComposite in2="hardAlpha" operator="out"/>
<feColorMatrix type="matrix" values="0 0 0 0 0.686275 0 0 0 0 0.709804 0 0 0 0 0.713726 0 0 0 0.5 0"/>
<feBlend mode="normal" in2="BackgroundImageFix" result="effect1_dropShadow_94_3"/>
<feBlend mode="normal" in="SourceGraphic" in2="effect1_dropShadow_94_3" result="shape"/>
</filter>
<filter id="filter2_d_94_3" x="8" y="144" width="1584" height="648" filterUnits="userSpaceOnUse" color-interpolation-filters="sRGB">
<feFlood flood-opacity="0" result="BackgroundImageFix"/>
<feColorMatrix in="SourceAlpha" type="matrix" values="0 0 0 0 0 0 0 0 0 0 0 0 0 0 0 0 0 0 127 0" result="hardAlpha"/>
<feOffset/>
<feGaussianBlur stdDeviation="4"/>
<feComposite in2="hardAlpha" operator="out"/>
<feColorMatrix type="matrix" values="0 0 0 0 0.686275 0 0 0 0 0.709804 0 0 0 0 0.713726 0 0 0 0.5 0"/>
<feBlend mode="normal" in2="BackgroundImageFix" result="effect1_dropShadow_94_3"/>
<feBlend mode="normal" in="SourceGraphic" in2="effect1_dropShadow_94_3" result="shape"/>
</filter>
<filter id="filter3_d_94_3" x="236" y="176" width="262" height="60" filterUnits="userSpaceOnUse" color-interpolation-filters="sRGB">
<feFlood flood-opacity="0" result="BackgroundImageFix"/>
<feColorMatrix in="SourceAlpha" type="matrix" values="0 0 0 0 0 0 0 0 0 0 0 0 0 0 0 0 0 0 127 0" result="hardAlpha"/>
<feOffset/>
<feGaussianBlur stdDeviation="2"/>
<feComposite in2="hardAlpha" operator="out"/>
<feColorMatrix type="matrix" values="0 0 0 0 0 0 0 0 0 0 0 0 0 0 0 0 0 0 0.5 0"/>
<feBlend mode="normal" in2="BackgroundImageFix" result="effect1_dropShadow_94_3"/>
<feBlend mode="normal" in="SourceGraphic" in2="effect1_dropShadow_94_3" result="shape"/>
</filter>
<filter id="filter4_d_94_3" x="506" y="176" width="262" height="60" filterUnits="userSpaceOnUse" color-interpolation-filters="sRGB">
<feFlood flood-opacity="0" result="BackgroundImageFix"/>
<feColorMatrix in="SourceAlpha" type="matrix" values="0 0 0 0 0 0 0 0 0 0 0 0 0 0 0 0 0 0 127 0" result="hardAlpha"/>
<feOffset/>
<feGaussianBlur stdDeviation="2"/>
<feComposite in2="hardAlpha" operator="out"/>
<feColorMatrix type="matrix" values="0 0 0 0 0 0 0 0 0 0 0 0 0 0 0 0 0 0 0.5 0"/>
<feBlend mode="normal" in2="BackgroundImageFix" result="effect1_dropShadow_94_3"/>
<feBlend mode="normal" in="SourceGraphic" in2="effect1_dropShadow_94_3" result="shape"/>
</filter>
<filter id="filter5_d_94_3" x="776" y="176" width="262" height="60" filterUnits="userSpaceOnUse" color-interpolation-filters="sRGB">
<feFlood flood-opacity="0" result="BackgroundImageFix"/>
<feColorMatrix in="SourceAlpha" type="matrix" values="0 0 0 0 0 0 0 0 0 0 0 0 0 0 0 0 0 0 127 0" result="hardAlpha"/>
<feOffset/>
<feGaussianBlur stdDeviation="2"/>
<feComposite in2="hardAlpha" operator="out"/>
<feColorMatrix type="matrix" values="0 0 0 0 0 0 0 0 0 0 0 0 0 0 0 0 0 0 0.5 0"/>
<feBlend mode="normal" in2="BackgroundImageFix" result="effect1_dropShadow_94_3"/>
<feBlend mode="normal" in="SourceGraphic" in2="effect1_dropShadow_94_3" result="shape"/>
</filter>
<filter id="filter6_d_94_3" x="1046" y="176" width="262" height="60" filterUnits="userSpaceOnUse" color-interpolation-filters="sRGB">
<feFlood flood-opacity="0" result="BackgroundImageFix"/>
<feColorMatrix in="SourceAlpha" type="matrix" values="0 0 0 0 0 0 0 0 0 0 0 0 0 0 0 0 0 0 127 0" result="hardAlpha"/>
<feOffset/>
<feGaussianBlur stdDeviation="2"/>
<feComposite in2="hardAlpha" operator="out"/>
<feColorMatrix type="matrix" values="0 0 0 0 0 0 0 0 0 0 0 0 0 0 0 0 0 0 0.5 0"/>
<feBlend mode="normal" in2="BackgroundImageFix" result="effect1_dropShadow_94_3"/>
<feBlend mode="normal" in="SourceGraphic" in2="effect1_dropShadow_94_3" result="shape"/>
</filter>
<filter id="filter7_d_94_3" x="1316" y="176" width="262" height="60" filterUnits="userSpaceOnUse" color-interpolation-filters="sRGB">
<feFlood flood-opacity="0" result="BackgroundImageFix"/>
<feColorMatrix in="SourceAlpha" type="matrix" values="0 0 0 0 0 0 0 0 0 0 0 0 0 0 0 0 0 0 127 0" result="hardAlpha"/>
<feOffset/>
<feGaussianBlur stdDeviation="2"/>
<feComposite in2="hardAlpha" operator="out"/>
<feColorMatrix type="matrix" values="0 0 0 0 0 0 0 0 0 0 0 0 0 0 0 0 0 0 0.5 0"/>
<feBlend mode="normal" in2="BackgroundImageFix" result="effect1_dropShadow_94_3"/>
<feBlend mode="normal" in="SourceGraphic" in2="effect1_dropShadow_94_3" result="shape"/>
</filter>
<filter id="filter8_d_94_3" x="24" y="160" width="202" height="76" filterUnits="userSpaceOnUse" color-interpolation-filters="sRGB">
<feFlood flood-opacity="0" result="BackgroundImageFix"/>
<feColorMatrix in="SourceAlpha" type="matrix" values="0 0 0 0 0 0 0 0 0 0 0 0 0 0 0 0 0 0 127 0" result="hardAlpha"/>
<feOffset/>
<feGaussianBlur stdDeviation="2"/>
<feComposite in2="hardAlpha" operator="out"/>
<feColorMatrix type="matrix" values="0 0 0 0 0.686275 0 0 0 0 0.709804 0 0 0 0 0.713726 0 0 0 1 0"/>
<feBlend mode="normal" in2="BackgroundImageFix" result="effect1_dropShadow_94_3"/>
<feBlend mode="normal" in="SourceGraphic" in2="effect1_dropShadow_94_3" result="shape"/>
</filter>
<filter id="filter9_d_94_3" x="236" y="532" width="664" height="244" filterUnits="userSpaceOnUse" color-interpolation-filters="sRGB">
<feFlood flood-opacity="0" result="BackgroundImageFix"/>
<feColorMatrix in="SourceAlpha" type="matrix" values="0 0 0 0 0 0 0 0 0 0 0 0 0 0 0 0 0 0 127 0" result="hardAlpha"/>
<feOffset/>
<feGaussianBlur stdDeviation="2"/>
<feComposite in2="hardAlpha" operator="out"/>
<feColorMatrix type="matrix" values="0 0 0 0 0.686275 0 0 0 0 0.709804 0 0 0 0 0.713726 0 0 0 1 0"/>
<feBlend mode="normal" in2="BackgroundImageFix" result="effect1_dropShadow_94_3"/>
<feBlend mode="normal" in="SourceGraphic" in2="effect1_dropShadow_94_3" result="shape"/>
</filter>
<filter id="filter10_d_94_3" x="908" y="532" width="670" height="244" filterUnits="userSpaceOnUse" color-interpolation-filters="sRGB">
<feFlood flood-opacity="0" result="BackgroundImageFix"/>
<feColorMatrix in="SourceAlpha" type="matrix" values="0 0 0 0 0 0 0 0 0 0 0 0 0 0 0 0 0 0 127 0" result="hardAlpha"/>
<feOffset/>
<feGaussianBlur stdDeviation="2"/>
<feComposite in2="hardAlpha" operator="out"/>
<feColorMatrix type="matrix" values="0 0 0 0 0.686275 0 0 0 0 0.709804 0 0 0 0 0.713726 0 0 0 1 0"/>
<feBlend mode="normal" in2="BackgroundImageFix" result="effect1_dropShadow_94_3"/>
<feBlend mode="normal" in="SourceGraphic" in2="effect1_dropShadow_94_3" result="shape"/>
</filter>
<filter id="filter11_d_94_3" x="236" y="260" width="1342" height="248" filterUnits="userSpaceOnUse" color-interpolation-filters="sRGB">
<feFlood flood-opacity="0" result="BackgroundImageFix"/>
<feColorMatrix in="SourceAlpha" type="matrix" values="0 0 0 0 0 0 0 0 0 0 0 0 0 0 0 0 0 0 127 0" result="hardAlpha"/>
<feOffset/>
<feGaussianBlur stdDeviation="2"/>
<feComposite in2="hardAlpha" operator="out"/>
<feColorMatrix type="matrix" values="0 0 0 0 0.686275 0 0 0 0 0.709804 0 0 0 0 0.713726 0 0 0 1 0"/>
<feBlend mode="normal" in2="BackgroundImageFix" result="effect1_dropShadow_94_3"/>
<feBlend mode="normal" in="SourceGraphic" in2="effect1_dropShadow_94_3" result="shape"/>
</filter>
<clipPath id="clip0_94_3">
<rect width="1600" height="800" fill="white"/>
</clipPath>
<clipPath id="clip1_94_3">
<rect width="28" height="28" fill="white" transform="translate(148 20)"/>
</clipPath>
<clipPath id="clip2_94_3">
<rect width="24" height="28" fill="white" transform="translate(150 78)"/>
</clipPath>
</defs>
</svg>
